HIERARCHY
ROOT pelvis
{
  OFFSET 0 100 0
  CHANNELS 6 Xposition Yposition Zposition Zrotation Xrotation Yrotation
  JOINT pelvis_right_femur
  {
    OFFSET -10.78128 -3.44521 -0.5502486
    CHANNELS 3 Zrotation Xrotation Yrotation
    JOINT right_femur_tibia
    {
      OFFSET -0.8047443 -44.0398 -0.1307829
      CHANNELS 3 Zrotation Xrotation Yrotation
      JOINT right_tibia_foot
      {
        OFFSET 3.006224 -47.83518 -5
        CHANNELS 3 Zrotation Xrotation Yrotation
        End Site
        {
          OFFSET 0 -5 15
        }
      }
    }
  }
  JOINT pelvis_left_femur
  {
    OFFSET 10.78128 -3.44521 -0.5502486
    CHANNELS 3 Zrotation Xrotation Yrotation
    JOINT left_femur_tibia
    {
      OFFSET 0.8047443 -44.0398 -0.1307829
      CHANNELS 3 Zrotation Xrotation Yrotation
      JOINT left_tibia_foot
      {
        OFFSET -4.370144 -48.10324 -4.275266
        CHANNELS 3 Zrotation Xrotation Yrotation
        End Site
        {
          OFFSET 0 -5 15
        }
      }
    }
  }
  JOINT pelvis_spine1
  {
    OFFSET 0 6.468898 -3.129235
    CHANNELS 3 Zrotation Xrotation Yrotation
    JOINT spine1
    {
      OFFSET 0 23.15396 4.99043
      CHANNELS 3 Zrotation Xrotation Yrotation
      JOINT spine2
      {
        OFFSET 0 20.79997 -5.064912
        CHANNELS 3 Zrotation Xrotation Yrotation
        JOINT neck
        {
          OFFSET 0 14.38658 9.616178
          CHANNELS 3 Zrotation Xrotation Yrotation
          End Site
          {
            OFFSET 0 20 0
          }
        }
      }
      JOINT right_manubrium
      {
        OFFSET -5.722621 16.35077 3.967754
        CHANNELS 3 Zrotation Xrotation Yrotation
        JOINT right_clavicle
        {
          OFFSET -13.16364 1.694482 -4.693211
          CHANNELS 3 Zrotation Xrotation Yrotation
          JOINT right_humerus
          {
            OFFSET -28.5034 -0.3100689 -2.792744
            CHANNELS 3 Zrotation Xrotation Yrotation
            JOINT right_radius
            {
              OFFSET -25.15693 0.02248979 -1.271978
              CHANNELS 3 Zrotation Xrotation Yrotation
              End Site
              {
                OFFSET -15 0 0
              }
            }
          }
        }
      }
      JOINT left_manubrium
      {
        OFFSET 5.722621 16.35077 3.967754
        CHANNELS 3 Zrotation Xrotation Yrotation
        JOINT left_clavicle
        {
          OFFSET 13.16364 1.694482 -4.693211
          CHANNELS 3 Zrotation Xrotation Yrotation
          JOINT left_humerus
          {
            OFFSET 29.39168 -1.063119 -2.237045
            CHANNELS 3 Zrotation Xrotation Yrotation
            JOINT left_radius
            {
              OFFSET 24.59957 -0.9528479 0.9047498
              CHANNELS 3 Zrotation Xrotation Yrotation
              End Site
              {
                OFFSET 15 -0 -0
              }
            }
          }
        }
      }
    }
  }
}
MOTION
Frames: 21
Frame Time: 0.0416666666667
31.25757 100.8603 238.9064 2.215972 -8.473351 -2.381147 0.2282629 22.68887 8.428211 -0 9.154577 -0 6.208894 -15.12435 1.540775 1.067544 -26.67218 -3.867025 -0 30.44026 -0 -8.73317 -5.693583 20.12508 -0.9783223 -0.2989721 10.11028 -1.900612 10.18308 -1.919368 2.290929 21.63867 5.18653 1.854564 -14.70444 6.914348 1.37356 -21.94458 11.8468 80.11842 22.07313 -5.90507 -0 0 26.67688 -26.35674 14.30986 13.50682 5.020791 -14.79716 -2.918955 -93.76617 21.82905 25.18482 0 0 -12.33243 -3.950302 6.543264 16.35622
32.18882 99.90171 245.4185 2.198365 -8.223811 -2.635075 -0.4641693 24.00525 8.398236 -0 13.40123 -0 7.046178 -14.78385 1.755843 0.4340863 -27.08549 -4.685491 -0 26.38053 -0 -8.611255 -5.976916 19.72753 -1.061443 -0.4938561 10.03039 -2.201349 9.61897 -1.803326 2.411641 21.51674 5.141386 1.679839 -14.83634 7.151522 1.043702 -22.16502 11.50285 79.83611 21.53804 -4.818576 -0 0 27.74815 -26.5417 14.01816 13.8067 4.798153 -13.86312 -2.894658 -94.05477 22.0679 26.09084 0 0 -10.75242 -4.31567 6.464692 16.98035
33.22946 99.26076 252.3194 2.371936 -7.991199 -2.74482 -1.422752 24.59931 8.24292 -0 18.87508 -0 7.792872 -13.36493 1.556088 -0.8849475 -25.79339 -5.8883 -0 24.77024 -0 -8.487426 -6.121703 19.21771 -1.360431 -1.02741 9.974798 -2.386901 9.162368 -1.776504 2.561353 21.51696 5.099268 1.537481 -14.88591 7.411288 0.9360755 -21.89244 11.09099 80.00738 21.21021 -4.577004 -0 0 27.8561 -26.54133 13.80929 13.87595 4.554507 -13.07937 -2.918308 -94.08198 22.38047 26.45252 0 0 -9.485564 -4.597538 6.444927 17.52003
34.32456 99.11621 259.4792 2.667921 -7.943719 -2.617085 -2.424381 24.11646 7.833751 -0 25.6566 -0 8.320717 -11.30644 0.8169468 -2.487807 -23.03944 -7.156812 -0 24.73771 -0 -8.322789 -6.384514 18.69304 -1.804478 -1.619896 9.836253 -2.467183 8.851907 -1.797223 2.694372 21.66386 5.070036 1.399324 -14.8376 7.67303 1.080586 -21.183 10.70495 80.59381 21.12692 -5.108585 -0 0 26.96477 -26.32449 13.70154 13.68453 4.33666 -12.58734 -2.977769 -93.725 22.77647 26.11734 0 0 -8.733837 -4.731798 6.510546 17.86169
35.40662 99.56897 266.6156 2.994144 -8.204338 -2.088529 -3.181833 22.18758 7.082187 -0 33.48354 -0 8.540621 -9.202161 -0.4587118 -4.032319 -19.13914 -8.246368 -0 25.25546 -0 -8.065564 -7.026116 18.16773 -2.279376 -1.954316 9.474467 -2.459452 8.704025 -1.872596 2.76595 21.96177 5.06783 1.234954 -14.69212 7.923593 1.46057 -20.16698 10.42602 81.53268 21.29267 -6.256482 -0 0 25.18473 -25.87363 13.69808 13.23978 4.159005 -12.50866 -3.084154 -92.87769 23.25358 24.96177 0 0 -8.614131 -4.662921 6.679861 17.92343
36.43103 100.5583 273.4626 3.239209 -8.728164 -1.194199 -3.414572 18.48329 6.06393 -0 41.30809 -0 8.404824 -7.676229 -2.055023 -5.266175 -14.28466 -9.053983 -0 25.46841 -0 -7.722939 -8.083537 17.61135 -2.635158 -1.85648 8.766141 -2.378647 8.671305 -2.07024 2.732957 22.38389 5.122886 1.016732 -14.44791 8.167664 1.968617 -19.05664 10.27692 82.72914 21.66801 -7.766078 -0 0 22.8809 -25.21087 13.77515 12.63355 4.018917 -12.86091 -3.264304 -91.53896 23.77606 22.95793 0 0 -9.122422 -4.366151 6.95344 17.68693
37.37501 101.9006 279.8527 3.340496 -9.352286 -0.07277548 -3.127273 13.11106 4.953514 -0 47.73128 -0 7.915285 -6.941761 -3.689894 -6.067815 -8.782105 -9.589596 -0 24.91755 -0 -7.36512 -9.407241 16.99849 -2.799297 -1.379489 7.701178 -2.220509 8.677237 -2.454634 2.613865 22.88252 5.236724 0.7534761 -14.11991 8.420486 2.440975 -17.97102 10.19771 84.11281 22.17232 -9.458868 -0 0 20.44268 -24.38869 13.8862 11.96998 3.947634 -13.56271 -3.522192 -89.81161 24.28104 20.19816 0 0 -10.20567 -3.858732 7.320127 17.17267
38.24566 103.3508 285.7667 3.291973 -9.80516 1.192274 -2.5671 6.661821 3.941407 -0 51.00349 -0 7.14162 -6.796337 -5.050953 -6.402819 -3.12469 -9.931744 -0 23.46675 -0 -7.110402 -10.71831 16.30659 -2.797205 -0.7813956 6.383698 -1.961377 8.621977 -3.077578 2.498551 23.38865 5.369769 0.4946825 -13.74397 8.701095 2.663001 -16.91903 10.0516 85.62791 22.6854 -11.24484 -0 0 18.24615 -23.48655 13.96336 11.35052 4.025735 -14.45565 -3.830323 -87.8856 24.70266 16.88393 0 0 -11.79936 -3.193641 7.764564 16.41922
39.05233 104.6229 291.3025 3.16719 -9.922471 2.562519 -2.02424 -0.1385024 3.138949 -0 50.39831 -0 6.155463 -6.90689 -6.072252 -6.380127 2.290751 -10.18302 -0 21.33279 -0 -6.976693 -11.96767 15.5216 -2.729619 -0.2675861 4.983085 -1.611431 8.445897 -3.911677 2.464336 23.83247 5.461511 0.2867991 -13.365 8.987673 2.538158 -15.88298 9.761848 87.15837 23.11694 -13.07793 -0 0 16.41392 -22.57384 13.95993 10.80156 4.297153 -15.43148 -4.142127 -85.90326 25.00832 13.23072 0 0 -13.8201 -2.423739 8.274607 15.45222
39.7898 105.4331 296.6326 3.074197 -9.63697 3.98852 -1.756045 -6.56274 2.557947 -0 45.97598 -0 5.020197 -6.97354 -6.837103 -6.179847 7.178011 -10.41019 -0 18.9471 -0 -6.91791 -13.2591 14.64877 -2.72759 0.03673203 3.69642 -1.208067 8.127781 -4.863974 2.562956 24.15045 5.447757 0.1653757 -13.03333 9.230387 2.072634 -14.83615 9.317577 88.55843 23.41499 -14.92618 -0 0 14.8845 -21.69853 13.85045 10.29124 4.768431 -16.42983 -4.40159 -83.96161 25.1941 9.449064 0 0 -16.1652 -1.591321 8.842541 14.2905
40.45399 105.6132 301.9224 3.082035 -9.04559 5.364708 -1.832953 -12.18058 2.114175 -0 38.6907 -0 3.759204 -7.057888 -7.450357 -5.975248 11.47262 -10.59368 -0 16.84518 -0 -6.892482 -14.65491 13.74915 -2.85224 0.1469366 2.667244 -0.8026592 7.713319 -5.764794 2.777154 24.32264 5.307223 0.1296653 -12.79763 9.380804 1.421121 -13.74597 8.826045 89.76572 23.59527 -16.7558 -0 0 13.44312 -20.84243 13.65389 9.734027 5.380053 -17.44198 -4.559469 -82.13078 25.26628 5.725447 0 0 -18.68116 -0.7058994 9.461175 12.97795
41.04347 105.1539 307.2889 3.199508 -8.302772 6.539439 -2.158508 -16.76937 1.698314 -0 29.90781 -0 2.387574 -7.330111 -7.992362 -5.875101 15.19175 -10.68365 -0 15.49921 -0 -6.888198 -16.11988 12.90145 -3.089501 0.1405663 1.971424 -0.4344666 7.267195 -6.453801 3.056223 24.36602 5.05557 0.1600811 -12.6877 9.413267 0.7749031 -12.6198 8.418157 90.76653 23.70281 -18.50803 -0 0 11.89074 -19.96315 13.40507 9.054196 6.038853 -18.4632 -4.585751 -80.47592 25.23992 2.239099 0 0 -21.17483 0.225972 10.1145 11.57999
41.54299 104.2114 312.7919 3.330778 -7.583726 7.392007 -2.370145 -20.25834 1.218024 -0 21.43091 -0 0.9518289 -7.885822 -8.481237 -5.840352 18.34039 -10.65993 -0 15.24773 -0 -6.949509 -17.4313 12.18658 -3.320461 0.1240765 1.590028 -0.1151873 6.845125 -6.835795 3.329872 24.34718 4.751988 0.2236494 -12.69531 9.345422 0.31247 -11.55842 8.196379 91.57033 23.79749 -20.0539 -0 0 10.16481 -19.01561 13.14438 8.234285 6.615017 -19.45074 -4.483474 -79.09009 25.14047 -0.7900504 0 0 -23.37017 1.170364 10.76509 10.20027
41.92744 103.0397 318.501 3.365839 -7.022888 7.942468 -2.179738 -22.58846 0.8064897 -0 14.8499 -0 -0.477028 -8.580747 -8.904007 -5.729637 20.91622 -10.56418 -0 16.33412 -0 -7.123688 -18.29049 11.67011 -3.423104 0.1134402 1.41529 0.1632337 6.493155 -6.933875 3.560303 24.32929 4.438167 0.3003667 -12.79785 9.201935 0.1044668 -10.62928 8.168017 92.2113 23.91066 -21.29912 -0 0 8.335407 -17.98847 12.89331 7.313738 7.01702 -20.30097 -4.280304 -78.08291 25.02027 -3.142814 0 0 -25.01181 2.072711 11.38069 8.943465
42.18705 101.918 324.5603 3.194086 -6.716587 8.424862 -1.440526 -23.61447 0.8422478 -0 11.54544 -0 -1.797349 -9.003364 -9.207634 -5.308668 22.87407 -10.50567 -0 19.02415 -0 -7.447329 -18.31589 11.42899 -3.290919 0.01325752 1.255926 0.4185902 6.259418 -6.890141 3.74819 24.36566 4.125192 0.3879735 -12.96372 9.001238 0.1111614 -9.842459 8.245965 92.73953 24.0354 -22.1853 -0 0 6.606391 -16.91434 12.65249 6.390806 7.196102 -20.82734 -4.022728 -77.60751 24.96266 -4.56135 0 0 -25.83926 2.850862 11.93839 7.924164
42.34532 101.0997 331.053 2.820085 -6.721037 8.935176 -0.2374288 -23.24289 1.444428 -0 11.43142 -0 -2.976862 -9.045023 -9.334228 -4.557747 23.98662 -10.50893 -0 23.48176 -0 -7.852934 -17.35695 11.58354 -2.914085 -0.1977175 1.053208 0.6399907 6.185028 -6.800511 3.89103 24.49559 3.816269 0.4836849 -13.1456 8.747257 0.2420469 -9.251672 8.35404 93.11336 24.16489 -22.63097 -0 0 5.201489 -15.87715 12.40291 5.580863 7.158185 -20.91693 -3.746243 -77.75323 25.03451 -4.893844 0 0 -25.69785 3.428168 12.43294 7.226032
42.44859 100.7721 337.8871 2.32459 -7.084334 9.217433 1.16266 -21.42018 2.460464 -0 13.36709 -0 -4.039901 -8.884413 -9.249166 -3.667364 23.85072 -10.49231 -0 29.73651 -0 -8.203362 -15.49759 12.27398 -2.365838 -0.4430152 0.8764305 0.7976965 6.305157 -6.69644 3.980727 24.74827 3.515911 0.5827902 -13.28876 8.439703 0.4005542 -8.961072 8.452779 93.21509 24.30208 -22.52346 -0 0 4.332312 -14.99344 12.11714 5.001724 6.934555 -20.54203 -3.483467 -78.56256 25.26326 -4.083743 0 0 -24.51436 3.73491 12.868 6.906893
42.53332 100.9764 344.8043 1.879295 -7.820976 9.049101 2.467921 -18.23392 3.502681 -0 15.8405 -0 -5.012155 -8.91432 -8.999248 -2.988962 22.03991 -10.31434 -0 37.24959 -0 -8.340177 -13.242 13.50775 -1.823652 -0.5051331 0.9139015 0.8829197 6.614162 -6.507181 4.02665 25.1127 3.237792 0.6854172 -13.37397 8.107389 0.58582 -9.06978 8.59728 92.92712 24.46401 -21.79479 -0 0 4.040962 -14.34779 11.78036 4.699581 6.535097 -19.86674 -3.302074 -79.9377 25.59432 -2.333346 0 0 -22.41536 3.749384 13.25084 6.944558
42.61855 101.6159 351.4782 1.642848 -8.849958 8.415158 3.448396 -13.89525 4.23576 -0 17.54885 -0 -5.888045 -9.428821 -8.648465 -2.77842 18.34265 -9.916316 -0 45.07902 -0 -8.157887 -11.13297 15.16075 -1.470315 -0.2227938 1.315961 0.8906603 7.057868 -6.153443 4.049691 25.54997 2.995822 0.7961995 -13.40657 7.789086 0.8135012 -9.614155 8.844515 92.19942 24.65285 -20.44688 -0 0 4.274594 -13.99926 11.38789 4.683621 5.993283 -19.09749 -3.248365 -81.73189 25.9357 0.07236511 0 0 -19.64207 3.492502 13.58655 7.265727
42.71293 102.564 357.7429 1.662509 -9.870305 7.494591 3.93368 -8.784183 4.600111 -0 17.88809 -0 -6.592396 -10.28048 -8.195888 -2.949958 13.11813 -9.457441 -0 51.70255 -0 -7.71028 -9.43249 16.93394 -1.405528 0.2643773 2.032445 0.8001225 7.489612 -5.636804 4.079995 25.98606 2.796114 0.9245829 -13.41657 7.517828 1.024564 -10.4817 9.152706 91.14559 24.834 -18.61752 -0 0 4.924121 -13.99125 10.94874 4.954951 5.437123 -18.36144 -3.272735 -83.80579 26.1807 2.889735 0 0 -16.55053 3.047678 13.87843 7.740464
42.8271 103.6409 363.5849 1.884672 -10.61242 6.489902 3.924705 -3.33204 4.659771 -0 16.78995 -0 -7.089113 -11.25235 -7.611124 -3.284511 6.903666 -9.11203 -0 55.62552 -0 -7.086192 -8.247939 18.58031 -1.59767 0.7739618 2.928083 0.6060338 7.780492 -4.987457 4.10616 26.34743 2.65499 1.061211 -13.44027 7.302601 1.135842 -11.56708 9.46455 89.88744 24.97367 -16.44016 -0 0 5.951632 -14.35287 10.47909 5.534453 5.009663 -17.70069 -3.297319 -86.029 26.24455 5.940638 0 0 -13.45189 2.517542 14.12908 8.243391
